<svg width="36" height="40" viewBox="0 0 36 40" fill="none" xmlns="http://www.w3.org/2000/svg">
<g clip-path="url(#clip0_46_3802)">
<path d="M8.04834 21.6667C8.04834 20.7826 8.35324 19.9348 8.89595 19.3096C9.43867 18.6845 10.1748 18.3333 10.9423 18.3333H25.412C26.1795 18.3333 26.9156 18.6845 27.4583 19.3096C28.001 19.9348 28.3059 20.7826 28.3059 21.6667V31.6667C28.3059 32.5507 28.001 33.3986 27.4583 34.0237C26.9156 34.6488 26.1795 35 25.412 35H10.9423C10.1748 35 9.43867 34.6488 8.89595 34.0237C8.35324 33.3986 8.04834 32.5507 8.04834 31.6667V21.6667Z" stroke="black" stroke-width="1.5" stroke-linecap="round" stroke-linejoin="round"/>
<path d="M16.73 26.6667C16.73 27.1087 16.8824 27.5326 17.1538 27.8452C17.4251 28.1577 17.7932 28.3333 18.177 28.3333C18.5607 28.3333 18.9288 28.1577 19.2001 27.8452C19.4715 27.5326 19.6239 27.1087 19.6239 26.6667C19.6239 26.2246 19.4715 25.8007 19.2001 25.4882C18.9288 25.1756 18.5607 25 18.177 25C17.7932 25 17.4251 25.1756 17.1538 25.4882C16.8824 25.8007 16.73 26.2246 16.73 26.6667Z" stroke="black" stroke-width="1.5" stroke-linecap="round" stroke-linejoin="round"/>
<path d="M12.3892 18.3333V11.6667C12.3892 9.89856 12.999 8.20286 14.0844 6.95262C15.1698 5.70238 16.642 5 18.177 5C19.7121 5 21.1842 5.70238 22.2697 6.95262C23.3551 8.20286 23.9649 9.89856 23.9649 11.6667V18.3333" stroke="black" stroke-width="1.5" stroke-linecap="round" stroke-linejoin="round"/>
</g>
<defs>
<clipPath id="clip0_46_3802">
<rect width="34.7273" height="40" fill="white" transform="translate(0.813477)"/>
</clipPath>
</defs>
</svg>
