<svg width="50" height="50" viewBox="0 0 50 50" fill="none" xmlns="http://www.w3.org/2000/svg">
<g clip-path="url(#clip0_154_378)">
<path d="M6.25 25C6.25 27.4623 6.73498 29.9005 7.67726 32.1753C8.61953 34.4502 10.0006 36.5172 11.7417 38.2582C13.4828 39.9993 15.5498 41.3805 17.8247 42.3227C20.0995 43.265 22.5377 43.75 25 43.75C27.4623 43.75 29.9005 43.265 32.1753 42.3227C34.4502 41.3805 36.5172 39.9993 38.2582 38.2582C39.9993 36.5172 41.3805 34.4502 42.3227 32.1753C43.265 29.9005 43.75 27.4623 43.75 25C43.75 22.5377 43.265 20.0995 42.3227 17.8247C41.3805 15.5498 39.9993 13.4828 38.2582 11.7417C36.5172 10.0006 34.4502 8.61953 32.1753 7.67726C29.9005 6.73498 27.4623 6.25 25 6.25C22.5377 6.25 20.0995 6.73498 17.8247 7.67726C15.5498 8.61953 13.4828 10.0006 11.7417 11.7417C10.0006 13.4828 8.61953 15.5498 7.67726 17.8247C6.73498 20.0995 6.25 22.5377 6.25 25Z" stroke="black" stroke-width="3" stroke-linecap="round" stroke-linejoin="round"/>
<path d="M18.75 20.8334C18.75 22.491 19.4085 24.0807 20.5806 25.2528C21.7527 26.4249 23.3424 27.0834 25 27.0834C26.6576 27.0834 28.2473 26.4249 29.4194 25.2528C30.5915 24.0807 31.25 22.491 31.25 20.8334C31.25 19.1758 30.5915 17.5861 29.4194 16.414C28.2473 15.2419 26.6576 14.5834 25 14.5834C23.3424 14.5834 21.7527 15.2419 20.5806 16.414C19.4085 17.5861 18.75 19.1758 18.75 20.8334Z" stroke="black" stroke-width="3" stroke-linecap="round" stroke-linejoin="round"/>
<path d="M12.8501 39.2688C13.3657 37.5526 14.4209 36.0483 15.8589 34.9792C17.297 33.91 19.0414 33.3328 20.8334 33.3334H29.1668C30.9611 33.3328 32.7076 33.9113 34.1467 34.9829C35.5859 36.0546 36.6406 37.5621 37.1543 39.2813" stroke="black" stroke-width="3" stroke-linecap="round" stroke-linejoin="round"/>
</g>
<defs>
<clipPath id="clip0_154_378">
<rect width="50" height="50" fill="white"/>
</clipPath>
</defs>
</svg>
